<?xml version="1.0" standalone="no"?>
<!DOCTYPE svg PUBLIC "-//W3C//DTD SVG 20010904//EN"
 "http://www.w3.org/TR/2001/REC-SVG-20010904/DTD/svg10.dtd">
<svg version="1.0" xmlns="http://www.w3.org/2000/svg"
 width="500.000000pt" height="500.000000pt" viewBox="0 0 500.000000 500.000000"
 preserveAspectRatio="xMidYMid meet">
<metadata>
Created by potrace 1.14, written by Peter Selinger 2001-2017
</metadata>
<g transform="translate(0.000000,500.000000) scale(0.100000,-0.100000)"
fill="#000000" stroke="none">
<path d="M0 2500 l0 -2500 2500 0 2500 0 0 2500 0 2500 -2500 0 -2500 0 0
-2500z m1110 660 c9 -25 65 -188 125 -362 88 -259 111 -318 125 -318 37 0 50
-12 50 -46 l0 -34 -200 0 -200 0 0 34 c0 36 12 46 56 46 13 0 24 2 24 4 0 2
-9 34 -20 70 l-21 66 -118 0 -118 0 -17 -61 c-9 -34 -15 -64 -12 -66 3 -3 20
-8 38 -12 29 -6 33 -11 36 -44 l3 -37 -136 0 -136 0 3 37 c3 37 4 38 53 46
l50 8 74 217 c41 119 96 281 124 360 l49 143 75 -3 75 -3 18 -45z m776 13 c-1
-37 -2 -38 -43 -41 l-42 -3 -3 -237 c-2 -130 -2 -276 0 -324 l3 -88 38 0 c41
0 51 -11 51 -56 l0 -24 -216 0 -215 0 3 38 c3 35 5 37 43 42 l40 5 0 320 0
320 -42 3 c-43 3 -43 3 -43 43 l0 39 214 0 213 0 -1 -37z m-848 -1490 c-3 -36
-5 -38 -40 -41 -35 -3 -37 -5 -43 -45 -4 -23 -5 -168 -3 -322 l3 -280 43 -3
c42 -3 42 -3 42 -43 l0 -39 -210 0 -210 0 0 39 c0 39 1 40 38 43 l37 3 3 322
2 322 -37 3 c-36 3 -38 5 -41 41 l-3 37 211 0 211 0 -3 -37z m336 -149 c11 -4
16 -19 16 -45 0 -21 3 -39 6 -39 4 0 24 15 45 34 57 52 125 67 203 45 39 -11
88 -50 98 -79 4 -11 16 -5 50 27 116 106 290 72 327 -64 6 -21 11 -125 11
-230 l0 -193 25 -6 c21 -5 25 -12 25 -40 l0 -34 -165 0 -165 0 0 34 c0 25 5
36 19 41 23 7 27 48 26 251 0 146 -7 164 -59 164 -67 0 -68 -5 -67 -214 0
-103 3 -191 6 -197 4 -5 13 -9 21 -9 9 0 14 -11 14 -35 l0 -35 -165 0 -165 0
0 34 c0 28 4 35 26 40 l25 7 -3 195 c-2 160 -6 196 -18 204 -20 13 -54 12 -85
-2 l-25 -11 0 -194 0 -193 25 -10 c25 -10 30 -25 19 -54 -5 -14 -30 -16 -175
-16 l-169 0 0 34 c0 30 4 35 30 41 l30 7 -2 196 -3 196 -33 8 c-28 8 -33 13
-30 35 3 25 12 30 133 69 72 23 131 42 132 43 1 1 8 -2 17 -5z m1273 -9 c59
-18 106 -65 122 -122 6 -21 11 -120 11 -220 0 -188 5 -210 39 -179 15 14 20
14 37 2 19 -14 19 -15 -2 -42 -33 -45 -66 -64 -122 -71 -63 -7 -133 16 -157
53 l-16 25 -37 -29 c-72 -56 -149 -67 -222 -29 -52 26 -80 73 -80 134 0 110
61 165 242 217 l83 24 3 43 c7 90 -25 139 -89 139 -16 0 -19 -7 -19 -39 0 -87
-41 -141 -107 -141 -132 0 -116 158 22 216 83 34 212 43 292 19z m626 0 c32
-8 68 -22 81 -30 21 -14 28 -13 90 16 81 38 96 34 96 -23 0 -63 -9 -71 -69
-67 -40 3 -50 1 -46 -9 39 -102 -16 -216 -122 -253 -23 -8 -82 -14 -150 -14
-118 0 -131 -5 -118 -46 8 -24 23 -27 185 -33 144 -5 185 -14 239 -54 63 -47
80 -142 39 -222 -49 -95 -149 -141 -328 -148 -149 -6 -220 8 -269 53 -33 30
-36 38 -36 85 0 48 3 55 40 89 l40 36 -27 27 c-48 46 -35 136 31 206 l31 33
-35 33 c-42 40 -55 72 -55 137 0 60 17 95 64 137 64 56 204 77 319 47z m693 0
c109 -32 165 -111 172 -242 l4 -83 -173 -2 -174 -3 3 -25 c10 -78 75 -140 146
-140 42 0 118 29 131 50 8 14 55 -25 55 -47 0 -25 -70 -91 -123 -114 -42 -19
-69 -24 -142 -24 -82 0 -97 3 -157 33 -49 24 -76 45 -101 80 -87 118 -88 293
-4 404 78 102 236 151 363 113z"/>
<path d="M887 2844 l-44 -139 85 -3 c46 -2 87 -1 89 2 4 4 -74 266 -82 274 -2
2 -24 -58 -48 -134z"/>
<path d="M2479 1181 c-35 -35 -39 -44 -39 -90 0 -38 5 -56 20 -71 23 -23 29
-24 64 -10 26 9 26 11 26 110 0 117 -8 124 -71 61z"/>
<path d="M3115 1439 c-13 -24 -16 -52 -13 -116 3 -73 6 -87 25 -103 13 -10 32
-16 42 -13 39 10 54 40 58 115 5 94 -15 141 -64 146 -27 3 -34 -2 -48 -29z"/>
<path d="M2994 845 c-9 -37 5 -74 39 -99 24 -18 43 -21 125 -21 79 0 103 4
131 20 48 29 57 60 26 91 -23 23 -31 24 -138 24 -63 0 -128 3 -145 6 -28 6
-32 3 -38 -21z"/>
<path d="M3825 1446 c-9 -13 -20 -50 -25 -82 -16 -94 -16 -94 33 -94 23 0 53
7 66 16 21 15 23 23 19 80 -6 93 -56 137 -93 80z"/>
</g>
</svg>
